# xmcd
#
# Track frame offsets:
#	150
#	23231
#	38942
#	55636
#	74350
#	91119
#	109346
#	127832
#	145209
#	161274
#	171726
#	184626
#	201925
#	226627
#	241498
#	255289
#	268927
#	285632
#	304982
#	323697
#
# Disc length: 4517 seconds
#
# Revision: 0
# Processed by: cddbd v1.5.2PL0 Copyright (c) Steve Scherf et al.
# Submitted via: EZCDAudioConverter 2.1.5.1
#
DISCID=1611a314
DTITLE=Various Artist - Absolute Acoustic 2012
DYEAR=2012
DGENRE=Acoustic Pop/Rock
TTITLE0=First Aid Kit - The Lion's Roar
TTITLE1=Moa Lignell - When I Held Ya
TTITLE2=Laleh - Some Die Young
TTITLE3=Walk Off The Earth - Somebody That I Used To Know
TTITLE4=Ed Sheeran - The A Team
TTITLE5=Lana Del Rey - Video Games
TTITLE6=Christina Perri - Jar Of Hearts
TTITLE7=Tomas Andersson Wij feat Ane Brun - Romantiken
TTITLE8=Loreen - Sober (acoustic)
TTITLE9=Amanda Fondell - True Colours
TTITLE10=Rebecca Fergusson - Nothing's Real But Love
TTITLE11=Anna Ternheim and Dave Ferguson - The Longer The Waiting
TTITLE12=Ben Howard - Old Pine
TTITLE13=Veronica Maggio - Mitt Hjärta Blöder
TTITLE14=John De Sohn feat Andreas Moe - Long Time (acoustic)
TTITLE15=Molly Sandén - Why Am I Crying
TTITLE16=James Morrison - I Won't Let You Go
TTITLE17=Katy Perry - The One That Got Away (acoustic)
TTITLE18=Bruno Mars - Grenade (acoustic)
TTITLE19=Takida - You Learn
EXTD=
EXTT0=
EXTT1=
EXTT2=
EXTT3=
EXTT4=
EXTT5=
EXTT6=
EXTT7=
EXTT8=
EXTT9=
EXTT10=
EXTT11=
EXTT12=
EXTT13=
EXTT14=
EXTT15=
EXTT16=
EXTT17=
EXTT18=
EXTT19=
PLAYORDER=
